<svg xmlns="http://www.w3.org/2000/svg" width="23.744" height="24" viewBox="0 0 23.744 24">
    <path data-name="Path 1131" d="M11.476 15a1 1 0 0 0-1 1v3a3 3 0 0 1-3 3H5a3 3 0 0 1-3-3V5a3 3 0 0 1 3-3h2.476a3 3 0 0 1 3 3v3a1 1 0 0 0 2 0V5a5.006 5.006 0 0 0-5-5H5a5.006 5.006 0 0 0-5 5v14a5.006 5.006 0 0 0 5 5h2.476a5.006 5.006 0 0 0 5-5v-3a1 1 0 0 0-1-1z" style="fill:#231942"/>
    <path data-name="Path 1132" d="m22.867 9.879-4.586-4.586a1 1 0 1 0-1.414 1.414l4.262 4.263L6 11a1 1 0 0 0 0 2l15.188-.031-4.323 4.324a1 1 0 1 0 1.414 1.414l4.586-4.586a3 3 0 0 0 0-4.242z" style="fill:#231942"/>
</svg>
