<svg xmlns="http://www.w3.org/2000/svg" width="19.641" height="19.641" viewBox="0 0 19.641 19.641">
    <path d="M19.641 8.184a.809.809 0 0 0-.02-.178L18.557 3.2a4.066 4.066 0 0 0-4-3.2H5.08a4.066 4.066 0 0 0-3.993 3.2L.02 8.006a.809.809 0 0 0-.02.178V9a3.26 3.26 0 0 0 .818 2.163v4.384a4.1 4.1 0 0 0 4.092 4.094h9.82a4.1 4.1 0 0 0 4.092-4.092v-4.384A3.26 3.26 0 0 0 19.641 9zm-18 .089 1.043-4.714a2.44 2.44 0 0 1 2.4-1.922h.648v2.455a.818.818 0 1 0 1.637 0V1.637h4.91v2.455a.818.818 0 1 0 1.637 0V1.637h.648a2.44 2.44 0 0 1 2.4 1.922L18 8.273V9a1.637 1.637 0 0 1-1.637 1.637h-.818A1.637 1.637 0 0 1 13.912 9a.818.818 0 1 0-1.637 0 1.637 1.637 0 0 1-1.637 1.637H9A1.637 1.637 0 0 1 7.365 9a.818.818 0 0 0-1.636 0 1.637 1.637 0 0 1-1.637 1.637h-.819A1.637 1.637 0 0 1 1.637 9zM14.731 18H4.91a2.455 2.455 0 0 1-2.455-2.455v-3.374a3.255 3.255 0 0 0 .818.1h.818a3.265 3.265 0 0 0 2.455-1.111A3.265 3.265 0 0 0 9 12.275h1.637a3.265 3.265 0 0 0 2.455-1.111 3.265 3.265 0 0 0 2.455 1.111h.818a3.255 3.255 0 0 0 .818-.1v3.377A2.455 2.455 0 0 1 14.731 18z" style="fill:#231942"/>
</svg>
