<svg xmlns="http://www.w3.org/2000/svg" width="22.23" height="23.455" viewBox="0 0 22.23 23.455">
    <g data-name="Group 11639">
        <path data-name="Path 365" d="M9.031 0C4.043 0 0 3.421 0 7.642A6.772 6.772 0 0 0 1.389 11.7v4.971l3.75-2.142a10.356 10.356 0 0 0 3.892.753c4.988 0 9.031-3.421 9.031-7.642S14.019 0 9.031 0z" style="fill:#bfc3c7"/>
        <path data-name="Path 366" d="M19.818 10.528a5.267 5.267 0 0 0-1.594-3.667c-1.013 4.845-5.826 8.53-11.606 8.53-.143 0-.281-.025-.424-.029a10.126 10.126 0 0 0 5.287 1.419 11.067 11.067 0 0 0 1.816-.153l5.131 2.932V14h-.017a5.194 5.194 0 0 0 1.407-3.472z" transform="translate(2.412 3.896)" style="fill:#bcbccb"/>
    </g>
</svg>
