<svg xmlns="http://www.w3.org/2000/svg" width="32" height="32" viewBox="0 0 32 32">
    <g data-name="Group 10686">
        <path data-name="Notification Icon" d="M8.625 20.125h5.749a2.875 2.875 0 1 1-5.749 0zm-7.188-1.437a1.437 1.437 0 0 1 0-2.875h.719A6.258 6.258 0 0 0 4.312 11.5V7.188A7.119 7.119 0 0 1 11.5 0a7.118 7.118 0 0 1 7.186 7.188V11.5a6.254 6.254 0 0 0 2.157 4.313h.719a1.437 1.437 0 0 1 0 2.875z" transform="translate(0 9)" style="fill:#bfc3c7"/>
        <g data-name="Notification Badge" transform="translate(16 2)" style="fill:#ff6a6a;stroke:#fff;stroke-width:2px">
            <circle cx="7" cy="7" r="7" style="stroke:none"/>
            <circle cx="7" cy="7" r="8" style="fill:none"/>
        </g>
    </g>
</svg>
