<svg xmlns="http://www.w3.org/2000/svg" width="62" height="62" viewBox="0 0 62 62">
  <defs>
    <style>
      .cls-1 {
        fill: #159282;
      }

      .cls-2 {
        fill: #fff;
      }
    </style>
  </defs>
  <g id="Group_17" data-name="Group 17" transform="translate(0.183)">
    <circle id="Ellipse_353" data-name="Ellipse 353" class="cls-1" cx="31" cy="31" r="31" transform="translate(-0.183)"/>
    <path id="category" class="cls-2" d="M10.822,0H.984A.984.984,0,0,0,0,.984v9.838a.984.984,0,0,0,.984.984h9.838a.984.984,0,0,0,.984-.984V.984A.984.984,0,0,0,10.822,0ZM9.838,9.838H1.968V1.968h7.87Zm14.74,3.617a.984.984,0,0,0-1.072.213l-9.838,9.838a.984.984,0,0,0,.7,1.68H24.2a.984.984,0,0,0,.984-.984V14.364a.984.984,0,0,0-.607-.909Zm-1.36,9.763H16.739l6.479-6.479ZM19.283,11.806a5.9,5.9,0,1,0-5.9-5.9A5.91,5.91,0,0,0,19.283,11.806Zm0-9.838A3.935,3.935,0,1,1,15.347,5.9,3.94,3.94,0,0,1,19.283,1.968ZM11.517,15.059,7.294,19.283l4.223,4.223A.984.984,0,0,1,10.126,24.9L5.9,20.674,1.679,24.9A.984.984,0,0,1,.288,23.506l4.223-4.223L.288,15.059a.984.984,0,0,1,1.391-1.391L5.9,17.891l4.223-4.223a.984.984,0,0,1,1.391,1.392Zm0,0" transform="translate(18.626 18.811)"/>
  </g>
</svg>
